<svg width="78" height="78" viewBox="0 0 78 78" fill="none" xmlns="http://www.w3.org/2000/svg">
<path d="M39.0019 24.375C30.9425 24.375 24.3762 30.941 24.3762 39C24.3762 47.059 30.9425 53.625 39.0019 53.625C47.0613 53.625 53.6276 47.059 53.6276 39C53.6276 30.941 47.0613 24.375 39.0019 24.375ZM76.5412 36.6387L62.1136 29.4328L67.2173 14.1375C67.9029 12.0656 65.9376 10.1004 63.8808 10.8012L48.5848 15.9047L41.3633 1.4625C40.3883 -0.4875 37.6155 -0.4875 36.6404 1.4625L29.4342 15.8895L14.123 10.7859C12.051 10.1004 10.0856 12.0656 10.7865 14.1223L15.8902 29.4176L1.46257 36.6387C-0.487524 37.6137 -0.487524 40.3863 1.46257 41.3613L15.8902 48.5672L10.7865 63.8777C10.1009 65.9496 12.0662 67.9148 14.123 67.2141L29.419 62.1105L36.6252 76.5375C37.6003 78.4875 40.3731 78.4875 41.3481 76.5375L48.5543 62.1105L63.8504 67.2141C65.9223 67.8996 67.8877 65.9344 67.1869 63.8777L62.0831 48.5824L76.5107 41.3766C78.4913 40.3863 78.4913 37.6137 76.5412 36.6387V36.6387ZM52.7897 52.7871C45.1873 60.3891 32.8164 60.3891 25.2141 52.7871C17.6118 45.1852 17.6118 32.8148 25.2141 25.2129C32.8164 17.6109 45.1873 17.6109 52.7897 25.2129C60.392 32.8148 60.392 45.1852 52.7897 52.7871Z" fill="white"/>
</svg>
